STARTFONT 2.1
FONT -FontForge-Okuda-Book-R-Normal--27-260-75-75-P-87-ISO10646-1
SIZE 26 75 75
FONTBOUNDINGBOX 22 29 -2 -5
COMMENT "Generated by fontforge, http://fontforge.sourceforge.net"
COMMENT "Okuda (c) (Neale Davidson). 2011-2014. All Rights Reserved"
STARTPROPERTIES 40
FOUNDRY "FontForge"
FAMILY_NAME "Okuda"
WEIGHT_NAME "Book"
SLANT "R"
SETWIDTH_NAME "Normal"
ADD_STYLE_NAME ""
PIXEL_SIZE 27
POINT_SIZE 260
RESOLUTION_X 75
RESOLUTION_Y 75
SPACING "P"
AVERAGE_WIDTH 87
CHARSET_REGISTRY "ISO10646"
CHARSET_ENCODING "1"
FONTNAME_REGISTRY ""
CHARSET_COLLECTIONS "Symbol ISO10646-1"
FONT_NAME "Okuda"
FACE_NAME "Okuda"
COPYRIGHT "Okuda (c) (Neale Davidson). 2011-2014. All Rights Reserved"
FONT_VERSION "3.50 January 2, 2014"
FONT_ASCENT 22
FONT_DESCENT 5
UNDERLINE_POSITION -4
UNDERLINE_THICKNESS 2
X_HEIGHT 13
CAP_HEIGHT 17
DEFAULT_CHAR 1
RAW_ASCENT 799
RAW_DESCENT 200
NORM_SPACE 7
RELATIVE_WEIGHT 40
RELATIVE_SETWIDTH 50
SUPERSCRIPT_X 0
SUPERSCRIPT_Y 12
SUPERSCRIPT_SIZE 17
SUBSCRIPT_X 0
SUBSCRIPT_Y 3
SUBSCRIPT_SIZE 17
AVG_LOWERCASE_WIDTH 68
AVG_UPPERCASE_WIDTH 78
ENDPROPERTIES
CHARS 244
STARTCHAR .null.dup1
ENCODING 0
SWIDTH 0 0
DWIDTH 0 0
BBX 1 1 0 0
BITMAP
00
ENDCHAR
STARTCHAR .null
ENCODING 29
SWIDTH 0 0
DWIDTH 0 0
BBX 1 1 0 0
BITMAP
00
ENDCHAR
STARTCHAR space
ENCODING 32
SWIDTH 244 0
DWIDTH 7 0
BBX 1 1 0 0
BITMAP
00
ENDCHAR
STARTCHAR exclam
ENCODING 33
SWIDTH 122 0
DWIDTH 3 0
BBX 2 18 1 0
BITMAP
C0
C0
C0
C0
C0
C0
C0
C0
C0
C0
C0
C0
C0
C0
00
00
C0
C0
ENDCHAR
STARTCHAR quotedbl
ENCODING 34
SWIDTH 249 0
DWIDTH 7 0
BBX 5 3 1 16
BITMAP
D8
D8
B0
ENDCHAR
STARTCHAR numbersign
ENCODING 35
SWIDTH 410 0
DWIDTH 11 0
BBX 10 9 1 6
BITMAP
3300
3300
FFC0
FFC0
3300
33C0
FFC0
3300
3300
ENDCHAR
STARTCHAR dollar
ENCODING 36
SWIDTH 268 0
DWIDTH 7 0
BBX 6 18 1 0
BITMAP
30
70
F8
D8
CC
C0
C0
E0
60
30
18
1C
0C
CC
CC
F8
78
30
ENDCHAR
STARTCHAR percent
ENCODING 37
SWIDTH 439 0
DWIDTH 12 0
BBX 10 18 1 0
BITMAP
78C0
F9C0
CD80
CF80
CF00
CF00
DE00
FE00
7C00
0D00
1FC0
1EC0
3CC0
3CC0
7CC0
6CC0
EFC0
C780
ENDCHAR
STARTCHAR ampersand
ENCODING 38
SWIDTH 292 0
DWIDTH 8 0
BBX 6 18 1 0
BITMAP
60
E0
C0
C0
C0
CC
CC
CC
FC
FC
CC
CC
CC
CC
CC
CC
F8
F8
ENDCHAR
STARTCHAR quotesingle
ENCODING 39
SWIDTH 146 0
DWIDTH 4 0
BBX 2 3 1 16
BITMAP
C0
C0
80
ENDCHAR
STARTCHAR parenleft
ENCODING 40
SWIDTH 219 0
DWIDTH 6 0
BBX 4 22 1 -2
BITMAP
30
30
60
60
E0
C0
C0
C0
C0
C0
C0
C0
C0
C0
C0
C0
C0
C0
60
60
70
30
ENDCHAR
STARTCHAR parenright
ENCODING 41
SWIDTH 219 0
DWIDTH 6 0
BBX 4 22 1 -2
BITMAP
C0
C0
60
60
60
30
30
30
30
30
30
30
30
30
30
30
30
70
60
60
C0
C0
ENDCHAR
STARTCHAR asterisk
ENCODING 42
SWIDTH 781 0
DWIDTH 21 0
BBX 19 21 1 -2
BITMAP
004000
000000
00E000
004000
015000
004000
024800
104100
00E000
046400
00E000
008000
080200
003200
808020
400040
300280
000300
084100
100000
200000
ENDCHAR
STARTCHAR plus
ENCODING 43
SWIDTH 264 0
DWIDTH 7 0
BBX 6 6 1 7
BITMAP
30
30
FC
FC
30
30
ENDCHAR
STARTCHAR comma
ENCODING 44
SWIDTH 146 0
DWIDTH 4 0
BBX 2 3 1 -1
BITMAP
C0
C0
C0
ENDCHAR
STARTCHAR hyphen
ENCODING 45
SWIDTH 268 0
DWIDTH 7 0
BBX 6 2 1 8
BITMAP
FC
FC
ENDCHAR
STARTCHAR period
ENCODING 46
SWIDTH 122 0
DWIDTH 3 0
BBX 2 2 1 0
BITMAP
C0
C0
ENDCHAR
STARTCHAR slash
ENCODING 47
SWIDTH 268 0
DWIDTH 7 0
BBX 6 18 1 0
BITMAP
0C
18
18
18
18
30
30
30
30
30
60
60
60
60
C0
C0
C0
C0
ENDCHAR
STARTCHAR zero
ENCODING 48
SWIDTH 268 0
DWIDTH 7 0
BBX 6 18 1 0
BITMAP
78
F8
CC
CC
CC
CC
CC
CC
CC
CC
CC
CC
CC
CC
CC
CC
F8
F8
ENDCHAR
STARTCHAR one
ENCODING 49
SWIDTH 160 0
DWIDTH 4 0
BBX 3 18 1 0
BITMAP
60
E0
E0
E0
60
60
60
60
60
60
60
60
60
60
60
60
60
60
ENDCHAR
STARTCHAR two
ENCODING 50
SWIDTH 268 0
DWIDTH 7 0
BBX 6 18 1 0
BITMAP
78
F8
CC
CC
CC
0C
0C
18
18
30
70
E0
C0
C0
C0
C0
FC
FC
ENDCHAR
STARTCHAR three
ENCODING 51
SWIDTH 268 0
DWIDTH 7 0
BBX 6 18 1 0
BITMAP
78
F8
CC
CC
CC
0C
0C
18
38
38
0C
0C
0C
CC
CC
CC
F8
F8
ENDCHAR
STARTCHAR four
ENCODING 52
SWIDTH 337 0
DWIDTH 9 0
BBX 8 18 1 0
BITMAP
0C
0C
1C
1C
1C
3C
3C
6C
6C
6C
CC
CC
FF
FF
0C
0C
0C
0C
ENDCHAR
STARTCHAR five
ENCODING 53
SWIDTH 268 0
DWIDTH 7 0
BBX 6 18 1 0
BITMAP
FC
FC
C0
C0
C0
C0
C0
F8
F8
CC
0C
0C
0C
CC
CC
CC
F8
F8
ENDCHAR
STARTCHAR six
ENCODING 54
SWIDTH 268 0
DWIDTH 7 0
BBX 6 18 1 0
BITMAP
78
F8
CC
CC
CC
C0
C0
F8
F8
CC
CC
CC
CC
CC
CC
CC
F8
F8
ENDCHAR
STARTCHAR seven
ENCODING 55
SWIDTH 292 0
DWIDTH 8 0
BBX 6 18 1 0
BITMAP
FC
FC
0C
0C
0C
0C
1C
18
18
18
18
30
30
30
30
60
60
60
ENDCHAR
STARTCHAR eight
ENCODING 56
SWIDTH 268 0
DWIDTH 7 0
BBX 6 18 1 0
BITMAP
78
F8
CC
CC
CC
CC
CC
D8
F8
F8
CC
CC
CC
CC
CC
CC
F8
F8
ENDCHAR
STARTCHAR nine
ENCODING 57
SWIDTH 268 0
DWIDTH 7 0
BBX 6 18 1 0
BITMAP
78
F8
CC
CC
CC
CC
CC
CC
CC
FC
FC
0C
0C
CC
CC
CC
F8
F8
ENDCHAR
STARTCHAR colon
ENCODING 58
SWIDTH 122 0
DWIDTH 3 0
BBX 2 10 1 0
BITMAP
C0
C0
00
00
00
00
00
00
C0
C0
ENDCHAR
STARTCHAR semicolon
ENCODING 59
SWIDTH 146 0
DWIDTH 4 0
BBX 2 11 1 -1
BITMAP
C0
C0
00
00
00
00
00
00
C0
C0
C0
ENDCHAR
STARTCHAR less
ENCODING 60
SWIDTH 292 0
DWIDTH 8 0
BBX 6 13 1 2
BITMAP
1C
18
30
70
60
C0
C0
60
70
30
18
18
0C
ENDCHAR
STARTCHAR equal
ENCODING 61
SWIDTH 264 0
DWIDTH 7 0
BBX 6 7 1 6
BITMAP
FC
FC
00
00
00
FC
FC
ENDCHAR
STARTCHAR greater
ENCODING 62
SWIDTH 292 0
DWIDTH 8 0
BBX 6 13 1 2
BITMAP
E0
60
30
38
18
0C
0C
18
38
30
60
E0
C0
ENDCHAR
STARTCHAR question
ENCODING 63
SWIDTH 268 0
DWIDTH 7 0
BBX 6 18 1 0
BITMAP
78
F8
CC
CC
CC
0C
0C
18
18
38
30
30
70
60
00
00
60
60
ENDCHAR
STARTCHAR at
ENCODING 64
SWIDTH 366 0
DWIDTH 10 0
BBX 8 16 1 1
BITMAP
7E
FF
C3
C3
CF
DF
FB
F3
F3
F3
F3
DF
DF
C0
FE
7E
ENDCHAR
STARTCHAR A
ENCODING 65
SWIDTH 292 0
DWIDTH 8 0
BBX 8 18 0 0
BITMAP
18
38
3C
3C
3C
3C
3C
3C
3C
7C
7E
6E
7E
7E
66
66
66
E7
ENDCHAR
STARTCHAR B
ENCODING 66
SWIDTH 292 0
DWIDTH 8 0
BBX 6 18 1 0
BITMAP
F8
FC
CC
CC
CC
CC
CC
CC
F8
FC
CC
CC
CC
CC
CC
CC
FC
F8
ENDCHAR
STARTCHAR C
ENCODING 67
SWIDTH 292 0
DWIDTH 8 0
BBX 6 18 1 0
BITMAP
78
FC
CC
CC
CC
C0
C0
C0
C0
C0
C0
C0
C0
CC
CC
CC
FC
FC
ENDCHAR
STARTCHAR D
ENCODING 68
SWIDTH 292 0
DWIDTH 8 0
BBX 6 18 1 0
BITMAP
F8
FC
CC
CC
CC
CC
CC
CC
CC
CC
CC
CC
CC
CC
CC
CC
FC
F8
ENDCHAR
STARTCHAR E
ENCODING 69
SWIDTH 292 0
DWIDTH 8 0
BBX 6 18 1 0
BITMAP
FC
FC
C0
C0
C0
C0
C0
C0
F8
F8
C0
C0
C0
C0
C0
C0
FC
FC
ENDCHAR
STARTCHAR F
ENCODING 70
SWIDTH 292 0
DWIDTH 8 0
BBX 6 18 1 0
BITMAP
FC
FC
C0
C0
C0
C0
C0
C0
F8
F8
C0
C0
C0
C0
C0
C0
C0
C0
ENDCHAR
STARTCHAR G
ENCODING 71
SWIDTH 292 0
DWIDTH 8 0
BBX 6 18 1 0
BITMAP
78
FC
CC
CC
CC
C0
C0
C0
C0
DC
DC
CC
CC
CC
CC
CC
FC
FC
ENDCHAR
STARTCHAR H
ENCODING 72
SWIDTH 292 0
DWIDTH 8 0
BBX 6 18 1 0
BITMAP
CC
CC
CC
CC
CC
CC
CC
FC
FC
CC
CC
CC
CC
CC
CC
CC
CC
CC
ENDCHAR
STARTCHAR I
ENCODING 73
SWIDTH 122 0
DWIDTH 3 0
BBX 2 18 1 0
BITMAP
C0
C0
C0
C0
C0
C0
C0
C0
C0
C0
C0
C0
C0
C0
C0
C0
C0
C0
ENDCHAR
STARTCHAR J
ENCODING 74
SWIDTH 292 0
DWIDTH 8 0
BBX 6 18 1 0
BITMAP
0C
0C
0C
0C
0C
0C
0C
0C
0C
0C
0C
0C
0C
CC
CC
CC
FC
FC
ENDCHAR
STARTCHAR K
ENCODING 75
SWIDTH 292 0
DWIDTH 8 0
BBX 7 18 1 0
BITMAP
CE
CC
DC
D8
F8
F0
E0
E0
C0
E0
E0
F0
F0
F8
D8
DC
CC
CE
ENDCHAR
STARTCHAR L
ENCODING 76
SWIDTH 268 0
DWIDTH 7 0
BBX 6 18 1 0
BITMAP
C0
C0
C0
C0
C0
C0
C0
C0
C0
C0
C0
C0
C0
C0
C0
C0
FC
FC
ENDCHAR
STARTCHAR M
ENCODING 77
SWIDTH 415 0
DWIDTH 11 0
BBX 10 18 1 0
BITMAP
C1C0
C1C0
E1C0
E3C0
E3C0
E3C0
E3C0
F2C0
F6C0
F6C0
F6C0
DEC0
DEC0
DCC0
DCC0
DCC0
DCC0
CCC0
ENDCHAR
STARTCHAR N
ENCODING 78
SWIDTH 317 0
DWIDTH 9 0
BBX 7 18 1 0
BITMAP
C6
C6
E6
E6
E6
E6
F6
F6
F6
F6
D6
DE
DE
DE
CE
CE
CE
CE
ENDCHAR
STARTCHAR O
ENCODING 79
SWIDTH 292 0
DWIDTH 8 0
BBX 6 18 1 0
BITMAP
78
FC
CC
CC
CC
CC
CC
CC
CC
CC
CC
CC
CC
CC
CC
CC
FC
FC
ENDCHAR
STARTCHAR P
ENCODING 80
SWIDTH 292 0
DWIDTH 8 0
BBX 6 18 1 0
BITMAP
F8
FC
CC
CC
CC
CC
CC
CC
CC
FC
F8
C0
C0
C0
C0
C0
C0
C0
ENDCHAR
STARTCHAR Q
ENCODING 81
SWIDTH 292 0
DWIDTH 8 0
BBX 6 21 1 -3
BITMAP
78
FC
CC
CC
CC
CC
CC
CC
CC
CC
CC
CC
CC
CC
CC
CC
FC
F8
30
3C
0C
ENDCHAR
STARTCHAR R
ENCODING 82
SWIDTH 268 0
DWIDTH 7 0
BBX 6 18 1 0
BITMAP
F0
F8
D8
CC
CC
CC
CC
CC
D8
F8
F8
CC
CC
CC
CC
CC
CC
CC
ENDCHAR
STARTCHAR S
ENCODING 83
SWIDTH 292 0
DWIDTH 8 0
BBX 6 18 1 0
BITMAP
78
FC
CC
CC
CC
C0
C0
E0
70
38
1C
0C
0C
CC
CC
CC
FC
FC
ENDCHAR
STARTCHAR T
ENCODING 84
SWIDTH 292 0
DWIDTH 8 0
BBX 6 18 1 0
BITMAP
FC
FC
30
30
30
30
30
30
30
30
30
30
30
30
30
30
30
30
ENDCHAR
STARTCHAR U
ENCODING 85
SWIDTH 292 0
DWIDTH 8 0
BBX 6 18 1 0
BITMAP
CC
CC
CC
CC
CC
CC
CC
CC
CC
CC
CC
CC
CC
CC
CC
CC
FC
FC
ENDCHAR
STARTCHAR V
ENCODING 86
SWIDTH 292 0
DWIDTH 8 0
BBX 8 18 0 0
BITMAP
E7
E6
66
66
66
66
6E
7E
7E
3C
3C
3C
3C
3C
3C
3C
38
18
ENDCHAR
STARTCHAR W
ENCODING 87
SWIDTH 476 0
DWIDTH 13 0
BBX 13 18 0 0
BITMAP
E738
E730
6730
6730
6730
6730
6F70
7FF0
7FE0
3FE0
3DE0
3DE0
3DE0
3DE0
3DE0
3DE0
39C0
18C0
ENDCHAR
STARTCHAR X
ENCODING 88
SWIDTH 292 0
DWIDTH 8 0
BBX 8 18 0 0
BITMAP
E7
66
66
7E
3C
3C
3C
3C
18
18
38
3C
3C
3C
7E
66
66
E6
ENDCHAR
STARTCHAR Y
ENCODING 89
SWIDTH 292 0
DWIDTH 8 0
BBX 8 18 0 0
BITMAP
E7
66
66
7E
3C
3C
3C
3C
18
18
18
18
18
18
18
18
18
18
ENDCHAR
STARTCHAR Z
ENCODING 90
SWIDTH 292 0
DWIDTH 8 0
BBX 6 18 1 0
BITMAP
FC
FC
0C
0C
1C
18
18
38
30
30
70
60
60
E0
C0
C0
FC
FC
ENDCHAR
STARTCHAR bracketleft
ENCODING 91
SWIDTH 219 0
DWIDTH 6 0
BBX 4 22 1 -2
BITMAP
F0
F0
C0
C0
C0
C0
C0
C0
C0
C0
C0
C0
C0
C0
C0
C0
C0
C0
C0
C0
F0
F0
ENDCHAR
STARTCHAR backslash
ENCODING 92
SWIDTH 268 0
DWIDTH 7 0
BBX 5 18 1 0
BITMAP
C0
C0
C0
C0
60
60
60
60
20
30
30
30
30
18
18
18
18
18
ENDCHAR
STARTCHAR bracketright
ENCODING 93
SWIDTH 219 0
DWIDTH 6 0
BBX 4 22 1 -2
BITMAP
F0
F0
30
30
30
30
30
30
30
30
30
30
30
30
30
30
30
30
30
30
F0
F0
ENDCHAR
STARTCHAR asciicircum
ENCODING 94
SWIDTH 292 0
DWIDTH 8 0
BBX 6 2 1 20
BITMAP
78
CC
ENDCHAR
STARTCHAR underscore
ENCODING 95
SWIDTH 336 0
DWIDTH 9 0
BBX 9 2 1 -3
BITMAP
FF80
FF80
ENDCHAR
STARTCHAR grave
ENCODING 96
SWIDTH 292 0
DWIDTH 8 0
BBX 6 3 1 20
BITMAP
60
F8
1C
ENDCHAR
STARTCHAR a
ENCODING 97
SWIDTH 268 0
DWIDTH 7 0
BBX 6 14 1 0
BITMAP
78
F8
CC
CC
0C
3C
FC
EC
CC
CC
CC
CC
FC
FC
ENDCHAR
STARTCHAR b
ENCODING 98
SWIDTH 268 0
DWIDTH 7 0
BBX 6 18 1 0
BITMAP
C0
C0
C0
C0
F8
F8
CC
CC
CC
CC
CC
CC
CC
CC
CC
CC
F8
F8
ENDCHAR
STARTCHAR c
ENCODING 99
SWIDTH 268 0
DWIDTH 7 0
BBX 6 14 1 0
BITMAP
78
F8
CC
CC
CC
C0
C0
C0
C0
CC
CC
CC
F8
F8
ENDCHAR
STARTCHAR d
ENCODING 100
SWIDTH 268 0
DWIDTH 7 0
BBX 6 18 1 0
BITMAP
0C
0C
0C
0C
6C
FC
CC
CC
CC
CC
CC
CC
CC
CC
CC
CC
FC
FC
ENDCHAR
STARTCHAR e
ENCODING 101
SWIDTH 268 0
DWIDTH 7 0
BBX 6 14 1 0
BITMAP
78
F8
CC
CC
CC
CC
FC
FC
C0
CC
CC
CC
F8
F8
ENDCHAR
STARTCHAR f
ENCODING 102
SWIDTH 219 0
DWIDTH 6 0
BBX 4 18 1 0
BITMAP
10
70
60
60
F0
F0
60
60
60
60
60
60
60
60
60
60
60
60
ENDCHAR
STARTCHAR g
ENCODING 103
SWIDTH 268 0
DWIDTH 7 0
BBX 6 19 1 -5
BITMAP
6C
FC
CC
CC
CC
CC
CC
CC
CC
CC
CC
CC
FC
FC
0C
CC
D8
F8
30
ENDCHAR
STARTCHAR h
ENCODING 104
SWIDTH 268 0
DWIDTH 7 0
BBX 6 18 1 0
BITMAP
C0
C0
C0
C0
F8
F8
CC
CC
CC
CC
CC
CC
CC
CC
CC
CC
CC
CC
ENDCHAR
STARTCHAR i
ENCODING 105
SWIDTH 117 0
DWIDTH 3 0
BBX 2 18 1 0
BITMAP
C0
C0
00
00
C0
C0
C0
C0
C0
C0
C0
C0
C0
C0
C0
C0
C0
C0
ENDCHAR
STARTCHAR j
ENCODING 106
SWIDTH 189 0
DWIDTH 5 0
BBX 4 22 1 -4
BITMAP
30
30
00
00
30
30
30
30
30
30
30
30
30
30
30
30
30
30
30
30
F0
E0
ENDCHAR
STARTCHAR k
ENCODING 107
SWIDTH 264 0
DWIDTH 7 0
BBX 5 18 1 0
BITMAP
C0
C0
C0
C0
C8
D8
D8
F0
F0
E0
E0
E0
E0
F0
F0
D8
D8
D8
ENDCHAR
STARTCHAR l
ENCODING 108
SWIDTH 122 0
DWIDTH 3 0
BBX 2 18 1 0
BITMAP
C0
C0
C0
C0
C0
C0
C0
C0
C0
C0
C0
C0
C0
C0
C0
C0
C0
C0
ENDCHAR
STARTCHAR m
ENCODING 109
SWIDTH 415 0
DWIDTH 11 0
BBX 10 14 1 0
BITMAP
F780
FF80
CC80
CCC0
CCC0
CCC0
CCC0
CCC0
CCC0
CCC0
CCC0
CCC0
CCC0
CCC0
ENDCHAR
STARTCHAR n
ENCODING 110
SWIDTH 268 0
DWIDTH 7 0
BBX 6 14 1 0
BITMAP
F8
F8
CC
CC
CC
CC
CC
CC
CC
CC
CC
CC
CC
CC
ENDCHAR
STARTCHAR o
ENCODING 111
SWIDTH 268 0
DWIDTH 7 0
BBX 6 14 1 0
BITMAP
78
F8
CC
CC
CC
CC
CC
CC
CC
CC
CC
CC
F8
F8
ENDCHAR
STARTCHAR p
ENCODING 112
SWIDTH 268 0
DWIDTH 7 0
BBX 6 18 1 -4
BITMAP
F8
F8
CC
CC
CC
CC
CC
CC
CC
CC
CC
CC
F8
F8
C0
C0
C0
C0
ENDCHAR
STARTCHAR q
ENCODING 113
SWIDTH 268 0
DWIDTH 7 0
BBX 6 18 1 -4
BITMAP
6C
FC
CC
CC
CC
CC
CC
CC
CC
CC
CC
CC
FC
FC
0C
0C
0C
0C
ENDCHAR
STARTCHAR r
ENCODING 114
SWIDTH 268 0
DWIDTH 7 0
BBX 6 14 1 0
BITMAP
F8
F8
CC
C0
C0
C0
C0
C0
C0
C0
C0
C0
C0
C0
ENDCHAR
STARTCHAR s
ENCODING 115
SWIDTH 268 0
DWIDTH 7 0
BBX 6 14 1 0
BITMAP
78
F8
CC
CC
C0
C0
60
30
18
18
CC
CC
F8
F8
ENDCHAR
STARTCHAR t
ENCODING 116
SWIDTH 205 0
DWIDTH 6 0
BBX 4 18 1 0
BITMAP
60
60
60
60
F0
F0
60
60
60
60
60
60
60
60
60
60
70
70
ENDCHAR
STARTCHAR u
ENCODING 117
SWIDTH 268 0
DWIDTH 7 0
BBX 6 14 1 0
BITMAP
CC
CC
CC
CC
CC
CC
CC
CC
CC
CC
CC
CC
FC
FC
ENDCHAR
STARTCHAR v
ENCODING 118
SWIDTH 292 0
DWIDTH 8 0
BBX 6 14 1 0
BITMAP
CC
CC
CC
CC
CC
6C
78
78
78
78
78
30
30
30
ENDCHAR
STARTCHAR w
ENCODING 119
SWIDTH 410 0
DWIDTH 11 0
BBX 10 14 1 0
BITMAP
CCC0
DD80
DD80
DD80
DD80
DD80
5D80
7D80
7700
7700
7700
7700
7700
3300
ENDCHAR
STARTCHAR x
ENCODING 120
SWIDTH 292 0
DWIDTH 8 0
BBX 6 14 1 0
BITMAP
CC
CC
CC
78
78
78
30
30
78
78
78
CC
CC
CC
ENDCHAR
STARTCHAR y
ENCODING 121
SWIDTH 292 0
DWIDTH 8 0
BBX 6 18 1 -4
BITMAP
CC
CC
CC
CC
CC
6C
78
78
78
78
78
30
30
30
30
30
F0
E0
ENDCHAR
STARTCHAR z
ENCODING 122
SWIDTH 263 0
DWIDTH 7 0
BBX 6 14 1 0
BITMAP
FC
FC
1C
18
18
30
30
70
60
60
C0
C0
FC
FC
ENDCHAR
STARTCHAR braceleft
ENCODING 123
SWIDTH 244 0
DWIDTH 7 0
BBX 5 22 1 -2
BITMAP
18
38
70
60
60
60
60
60
60
60
E0
E0
60
60
60
60
60
60
60
60
38
38
ENDCHAR
STARTCHAR bar
ENCODING 124
SWIDTH 122 0
DWIDTH 3 0
BBX 2 22 1 -2
BITMAP
C0
C0
C0
C0
C0
C0
C0
C0
C0
C0
C0
C0
C0
C0
C0
C0
C0
C0
C0
C0
C0
C0
ENDCHAR
STARTCHAR braceright
ENCODING 125
SWIDTH 244 0
DWIDTH 7 0
BBX 5 22 1 -2
BITMAP
C0
E0
60
60
60
60
60
60
60
60
38
38
60
60
60
60
60
60
60
60
E0
C0
ENDCHAR
STARTCHAR asciitilde
ENCODING 126
SWIDTH 317 0
DWIDTH 9 0
BBX 7 2 1 20
BITMAP
FE
FC
ENDCHAR
STARTCHAR space.dup2
ENCODING 160
SWIDTH 244 0
DWIDTH 7 0
BBX 1 1 0 0
BITMAP
00
ENDCHAR
STARTCHAR exclamdown
ENCODING 161
SWIDTH 122 0
DWIDTH 3 0
BBX 2 18 1 0
BITMAP
C0
C0
00
00
C0
C0
C0
C0
C0
C0
C0
C0
C0
C0
C0
C0
C0
C0
ENDCHAR
STARTCHAR cent
ENCODING 162
SWIDTH 268 0
DWIDTH 7 0
BBX 6 18 1 0
BITMAP
30
30
78
F8
CC
CC
CC
C0
C0
C0
C0
CC
CC
CC
F8
F8
30
30
ENDCHAR
STARTCHAR sterling
ENCODING 163
SWIDTH 292 0
DWIDTH 8 0
BBX 6 18 1 0
BITMAP
3C
7C
60
60
60
60
60
60
F0
F0
60
60
60
60
60
60
FC
FC
ENDCHAR
STARTCHAR currency
ENCODING 164
SWIDTH 305 0
DWIDTH 8 0
BBX 6 14 1 2
BITMAP
CC
CC
CC
78
FC
CC
CC
CC
CC
FC
78
CC
CC
CC
ENDCHAR
STARTCHAR yen
ENCODING 165
SWIDTH 292 0
DWIDTH 8 0
BBX 8 18 0 0
BITMAP
E7
66
66
7E
3C
3C
3C
3C
18
7E
7E
18
18
7E
7E
18
18
18
ENDCHAR
STARTCHAR brokenbar
ENCODING 166
SWIDTH 122 0
DWIDTH 3 0
BBX 2 22 1 -2
BITMAP
C0
C0
C0
C0
C0
C0
C0
C0
C0
C0
00
00
C0
C0
C0
C0
C0
C0
C0
C0
C0
C0
ENDCHAR
STARTCHAR section
ENCODING 167
SWIDTH 292 0
DWIDTH 8 0
BBX 6 21 1 -2
BITMAP
FC
FC
CC
CC
CC
C0
F8
FC
CC
CC
CC
CC
FC
7C
0C
0C
CC
CC
CC
FC
30
ENDCHAR
STARTCHAR dieresis
ENCODING 168
SWIDTH 244 0
DWIDTH 7 0
BBX 5 2 1 20
BITMAP
D8
D8
ENDCHAR
STARTCHAR copyright
ENCODING 169
SWIDTH 366 0
DWIDTH 10 0
BBX 8 13 1 7
BITMAP
3C
66
DA
AB
A9
A1
A1
A1
A1
AB
DA
66
3C
ENDCHAR
STARTCHAR ordfeminine
ENCODING 170
SWIDTH 805 0
DWIDTH 22 0
BBX 20 20 0 0
BITMAP
7FFFE0
800010
000010
000010
000010
000010
000010
000010
000010
000010
000010
000010
000010
000010
000010
000010
000010
000010
800010
400020
ENDCHAR
STARTCHAR guillemotleft
ENCODING 171
SWIDTH 439 0
DWIDTH 12 0
BBX 10 13 1 2
BITMAP
1DC0
1980
3300
7700
6600
CC00
CC00
6600
7600
3300
1B80
1980
0CC0
ENDCHAR
STARTCHAR logicalnot
ENCODING 172
SWIDTH 495 0
DWIDTH 13 0
BBX 11 6 2 4
BITMAP
FFE0
0020
0020
0020
0020
0020
ENDCHAR
STARTCHAR hyphen.dup3
ENCODING 173
SWIDTH 268 0
DWIDTH 7 0
BBX 6 2 1 8
BITMAP
FC
FC
ENDCHAR
STARTCHAR registered
ENCODING 174
SWIDTH 366 0
DWIDTH 10 0
BBX 8 13 1 7
BITMAP
3C
66
FA
AB
A9
A9
B9
A9
A9
AB
EA
66
3C
ENDCHAR
STARTCHAR macron
ENCODING 175
SWIDTH 805 0
DWIDTH 22 0
BBX 20 20 0 0
BITMAP
7FFFE0
800010
000010
000010
000010
000010
000010
000010
000010
000010
000010
000010
000010
000010
000010
000010
000010
000010
800010
400020
ENDCHAR
STARTCHAR degree
ENCODING 176
SWIDTH 329 0
DWIDTH 9 0
BBX 8 7 1 12
BITMAP
3C
42
41
81
01
42
3C
ENDCHAR
STARTCHAR plusminus
ENCODING 177
SWIDTH 805 0
DWIDTH 22 0
BBX 20 20 0 0
BITMAP
7FFFE0
800010
000010
000010
000010
000010
000010
000010
000010
000010
000010
000010
000010
000010
000010
000010
000010
000010
800010
400020
ENDCHAR
STARTCHAR uni00B2
ENCODING 178
SWIDTH 805 0
DWIDTH 22 0
BBX 20 20 0 0
BITMAP
7FFFE0
800010
000010
000010
000010
000010
000010
000010
000010
000010
000010
000010
000010
000010
000010
000010
000010
000010
800010
400020
ENDCHAR
STARTCHAR uni00B3
ENCODING 179
SWIDTH 805 0
DWIDTH 22 0
BBX 20 20 0 0
BITMAP
7FFFE0
800010
000010
000010
000010
000010
000010
000010
000010
000010
000010
000010
000010
000010
000010
000010
000010
000010
800010
400020
ENDCHAR
STARTCHAR acute
ENCODING 180
SWIDTH 292 0
DWIDTH 8 0
BBX 6 3 1 20
BITMAP
18
7C
E0
ENDCHAR
STARTCHAR mu
ENCODING 181
SWIDTH 268 0
DWIDTH 7 0
BBX 6 18 1 -4
BITMAP
CC
CC
CC
CC
CC
CC
CC
CC
CC
CC
CC
CC
FC
FC
C0
C0
C0
C0
ENDCHAR
STARTCHAR paragraph
ENCODING 182
SWIDTH 500 0
DWIDTH 14 0
BBX 11 19 2 0
BITMAP
1FE0
7C80
FC80
FC80
FC80
FC80
FC80
7C80
3C80
0480
0480
0480
0480
0480
0480
0480
0480
0480
0480
ENDCHAR
STARTCHAR periodcentered
ENCODING 183
SWIDTH 122 0
DWIDTH 3 0
BBX 2 2 1 8
BITMAP
C0
C0
ENDCHAR
STARTCHAR cedilla
ENCODING 184
SWIDTH 292 0
DWIDTH 8 0
BBX 6 7 1 -5
BITMAP
18
1C
0C
CC
FC
F8
30
ENDCHAR
STARTCHAR uni00B9
ENCODING 185
SWIDTH 805 0
DWIDTH 22 0
BBX 20 20 0 0
BITMAP
7FFFE0
800010
000010
000010
000010
000010
000010
000010
000010
000010
000010
000010
000010
000010
000010
000010
000010
000010
800010
400020
ENDCHAR
STARTCHAR ordmasculine
ENCODING 186
SWIDTH 805 0
DWIDTH 22 0
BBX 20 20 0 0
BITMAP
7FFFE0
800010
000010
000010
000010
000010
000010
000010
000010
000010
000010
000010
000010
000010
000010
000010
000010
000010
800010
400020
ENDCHAR
STARTCHAR guillemotright
ENCODING 187
SWIDTH 439 0
DWIDTH 12 0
BBX 10 13 1 2
BITMAP
EE00
6600
3300
3B80
1980
0CC0
0CC0
1980
3B80
3300
6600
EE00
CC00
ENDCHAR
STARTCHAR onequarter
ENCODING 188
SWIDTH 805 0
DWIDTH 22 0
BBX 20 20 0 0
BITMAP
7FFFE0
800010
000010
000010
000010
000010
000010
000010
000010
000010
000010
000010
000010
000010
000010
000010
000010
000010
800010
400020
ENDCHAR
STARTCHAR onehalf
ENCODING 189
SWIDTH 805 0
DWIDTH 22 0
BBX 20 20 0 0
BITMAP
7FFFE0
800010
000010
000010
000010
000010
000010
000010
000010
000010
000010
000010
000010
000010
000010
000010
000010
000010
800010
400020
ENDCHAR
STARTCHAR threequarters
ENCODING 190
SWIDTH 805 0
DWIDTH 22 0
BBX 20 20 0 0
BITMAP
7FFFE0
800010
000010
000010
000010
000010
000010
000010
000010
000010
000010
000010
000010
000010
000010
000010
000010
000010
800010
400020
ENDCHAR
STARTCHAR questiondown
ENCODING 191
SWIDTH 268 0
DWIDTH 7 0
BBX 6 18 1 0
BITMAP
30
30
00
00
30
30
70
60
60
C0
C0
C0
C0
CC
CC
CC
F8
F8
ENDCHAR
STARTCHAR Agrave
ENCODING 192
SWIDTH 292 0
DWIDTH 8 0
BBX 8 23 0 0
BITMAP
30
7C
0E
00
00
18
38
3C
3C
3C
3C
3C
3C
3C
7C
7E
6E
7E
7E
66
66
66
E7
ENDCHAR
STARTCHAR Aacute
ENCODING 193
SWIDTH 292 0
DWIDTH 8 0
BBX 8 23 0 0
BITMAP
0C
3E
70
00
00
18
38
3C
3C
3C
3C
3C
3C
3C
7C
7E
6E
7E
7E
66
66
66
E7
ENDCHAR
STARTCHAR Acircumflex
ENCODING 194
SWIDTH 292 0
DWIDTH 8 0
BBX 8 22 0 0
BITMAP
3C
66
00
00
18
38
3C
3C
3C
3C
3C
3C
3C
7C
7E
6E
7E
7E
66
66
66
E7
ENDCHAR
STARTCHAR Atilde
ENCODING 195
SWIDTH 292 0
DWIDTH 8 0
BBX 8 22 0 0
BITMAP
7E
FE
00
00
18
38
3C
3C
3C
3C
3C
3C
3C
7C
7E
6E
7E
7E
66
66
66
E7
ENDCHAR
STARTCHAR Adieresis
ENCODING 196
SWIDTH 292 0
DWIDTH 8 0
BBX 8 22 0 0
BITMAP
66
66
00
00
18
38
3C
3C
3C
3C
3C
3C
3C
7C
7E
6E
7E
7E
66
66
66
E7
ENDCHAR
STARTCHAR Aring
ENCODING 197
SWIDTH 292 0
DWIDTH 8 0
BBX 8 24 0 0
BITMAP
18
3C
3C
3C
18
00
18
38
3C
3C
3C
3C
3C
3C
3C
7C
7E
6E
7E
7E
66
66
66
E7
ENDCHAR
STARTCHAR AE
ENCODING 198
SWIDTH 463 0
DWIDTH 13 0
BBX 12 18 0 0
BITMAP
1FF0
3FF0
3E00
3E00
3E00
3E00
3E00
3E00
3FE0
7FE0
7E00
6E00
7E00
7E00
6600
6600
67F0
E7F0
ENDCHAR
STARTCHAR Ccedilla
ENCODING 199
SWIDTH 292 0
DWIDTH 8 0
BBX 6 23 1 -5
BITMAP
78
FC
CC
CC
CC
C0
C0
C0
C0
C0
C0
C0
C0
CC
CC
CC
FC
FC
1C
0C
CC
FC
78
ENDCHAR
STARTCHAR Egrave
ENCODING 200
SWIDTH 292 0
DWIDTH 8 0
BBX 6 23 1 0
BITMAP
60
F8
1C
00
00
FC
FC
C0
C0
C0
C0
C0
C0
F8
F8
C0
C0
C0
C0
C0
C0
FC
FC
ENDCHAR
STARTCHAR Eacute
ENCODING 201
SWIDTH 292 0
DWIDTH 8 0
BBX 6 23 1 0
BITMAP
18
7C
E0
00
00
FC
FC
C0
C0
C0
C0
C0
C0
F8
F8
C0
C0
C0
C0
C0
C0
FC
FC
ENDCHAR
STARTCHAR Ecircumflex
ENCODING 202
SWIDTH 292 0
DWIDTH 8 0
BBX 6 22 1 0
BITMAP
78
CC
00
00
FC
FC
C0
C0
C0
C0
C0
C0
F8
F8
C0
C0
C0
C0
C0
C0
FC
FC
ENDCHAR
STARTCHAR Edieresis
ENCODING 203
SWIDTH 292 0
DWIDTH 8 0
BBX 6 22 1 0
BITMAP
CC
CC
00
00
FC
FC
C0
C0
C0
C0
C0
C0
F8
F8
C0
C0
C0
C0
C0
C0
FC
FC
ENDCHAR
STARTCHAR Igrave
ENCODING 204
SWIDTH 122 0
DWIDTH 3 0
BBX 6 23 -1 0
BITMAP
60
F0
1C
00
00
30
30
30
30
30
30
30
30
30
30
30
30
30
30
30
30
30
30
ENDCHAR
STARTCHAR Iacute
ENCODING 205
SWIDTH 122 0
DWIDTH 3 0
BBX 6 23 -2 0
BITMAP
18
3C
F0
00
00
18
18
18
18
18
18
18
18
18
18
18
18
18
18
18
18
18
18
ENDCHAR
STARTCHAR Icircumflex
ENCODING 206
SWIDTH 122 0
DWIDTH 3 0
BBX 5 22 -1 0
BITMAP
70
D8
00
00
30
30
30
30
30
30
30
30
30
30
30
30
30
30
30
30
30
30
ENDCHAR
STARTCHAR Idieresis
ENCODING 207
SWIDTH 122 0
DWIDTH 3 0
BBX 5 22 -1 0
BITMAP
D8
D8
00
00
30
30
30
30
30
30
30
30
30
30
30
30
30
30
30
30
30
30
ENDCHAR
STARTCHAR Eth
ENCODING 208
SWIDTH 317 0
DWIDTH 9 0
BBX 8 18 1 0
BITMAP
7C
7E
66
63
63
63
63
63
F3
F3
63
63
63
63
63
66
7E
7E
ENDCHAR
STARTCHAR Ntilde
ENCODING 209
SWIDTH 317 0
DWIDTH 9 0
BBX 7 22 1 0
BITMAP
FE
FC
00
00
C6
C6
E6
E6
E6
E6
F6
F6
F6
F6
D6
DE
DE
DE
CE
CE
CE
CE
ENDCHAR
STARTCHAR Ograve
ENCODING 210
SWIDTH 292 0
DWIDTH 8 0
BBX 6 23 1 0
BITMAP
60
F8
1C
00
00
78
FC
CC
CC
CC
CC
CC
CC
CC
CC
CC
CC
CC
CC
CC
CC
FC
FC
ENDCHAR
STARTCHAR Oacute
ENCODING 211
SWIDTH 292 0
DWIDTH 8 0
BBX 6 23 1 0
BITMAP
18
7C
E0
00
00
78
FC
CC
CC
CC
CC
CC
CC
CC
CC
CC
CC
CC
CC
CC
CC
FC
FC
ENDCHAR
STARTCHAR Ocircumflex
ENCODING 212
SWIDTH 292 0
DWIDTH 8 0
BBX 6 22 1 0
BITMAP
78
CC
00
00
78
FC
CC
CC
CC
CC
CC
CC
CC
CC
CC
CC
CC
CC
CC
CC
FC
FC
ENDCHAR
STARTCHAR Otilde
ENCODING 213
SWIDTH 292 0
DWIDTH 8 0
BBX 7 22 0 0
BITMAP
7E
FE
00
00
3C
7E
66
66
66
66
66
66
66
66
66
66
66
66
66
66
7E
7E
ENDCHAR
STARTCHAR Odieresis
ENCODING 214
SWIDTH 292 0
DWIDTH 8 0
BBX 6 22 1 0
BITMAP
CC
CC
00
00
78
FC
CC
CC
CC
CC
CC
CC
CC
CC
CC
CC
CC
CC
CC
CC
FC
FC
ENDCHAR
STARTCHAR multiply
ENCODING 215
SWIDTH 292 0
DWIDTH 8 0
BBX 6 14 1 2
BITMAP
CC
CC
CC
78
78
78
30
30
78
78
78
CC
CC
CC
ENDCHAR
STARTCHAR Oslash
ENCODING 216
SWIDTH 292 0
DWIDTH 8 0
BBX 6 18 1 0
BITMAP
7C
FC
CC
DC
DC
DC
DC
FC
FC
FC
FC
EC
EC
EC
EC
CC
FC
FC
ENDCHAR
STARTCHAR Ugrave
ENCODING 217
SWIDTH 292 0
DWIDTH 8 0
BBX 6 23 1 0
BITMAP
60
F8
1C
00
00
CC
CC
CC
CC
CC
CC
CC
CC
CC
CC
CC
CC
CC
CC
CC
CC
FC
FC
ENDCHAR
STARTCHAR Uacute
ENCODING 218
SWIDTH 292 0
DWIDTH 8 0
BBX 6 23 1 0
BITMAP
18
7C
E0
00
00
CC
CC
CC
CC
CC
CC
CC
CC
CC
CC
CC
CC
CC
CC
CC
CC
FC
FC
ENDCHAR
STARTCHAR Ucircumflex
ENCODING 219
SWIDTH 292 0
DWIDTH 8 0
BBX 6 22 1 0
BITMAP
78
CC
00
00
CC
CC
CC
CC
CC
CC
CC
CC
CC
CC
CC
CC
CC
CC
CC
CC
FC
FC
ENDCHAR
STARTCHAR Udieresis
ENCODING 220
SWIDTH 292 0
DWIDTH 8 0
BBX 6 22 1 0
BITMAP
CC
CC
00
00
CC
CC
CC
CC
CC
CC
CC
CC
CC
CC
CC
CC
CC
CC
CC
CC
FC
FC
ENDCHAR
STARTCHAR Yacute
ENCODING 221
SWIDTH 292 0
DWIDTH 8 0
BBX 8 23 0 0
BITMAP
0C
3E
70
00
00
E7
66
66
7E
3C
3C
3C
3C
18
18
18
18
18
18
18
18
18
18
ENDCHAR
STARTCHAR Thorn
ENCODING 222
SWIDTH 292 0
DWIDTH 8 0
BBX 6 18 1 0
BITMAP
C0
C0
C0
F0
FC
DC
CC
CC
CC
CC
CC
CC
CC
FC
F8
C0
C0
C0
ENDCHAR
STARTCHAR germandbls
ENCODING 223
SWIDTH 292 0
DWIDTH 8 0
BBX 6 18 1 0
BITMAP
78
FC
CC
CC
CC
CC
CC
CC
F8
FC
CC
CC
CC
CC
CC
CC
FC
FC
ENDCHAR
STARTCHAR agrave
ENCODING 224
SWIDTH 268 0
DWIDTH 7 0
BBX 6 19 1 0
BITMAP
60
F0
1C
00
00
78
F8
CC
CC
0C
3C
FC
EC
CC
CC
CC
CC
FC
FC
ENDCHAR
STARTCHAR aacute
ENCODING 225
SWIDTH 268 0
DWIDTH 7 0
BBX 7 19 0 0
BITMAP
1C
3C
E0
00
00
3C
7C
66
66
06
1E
7E
76
66
66
66
66
7E
7E
ENDCHAR
STARTCHAR acircumflex
ENCODING 226
SWIDTH 268 0
DWIDTH 7 0
BBX 6 18 1 0
BITMAP
70
D8
00
00
78
F8
CC
CC
0C
3C
FC
EC
CC
CC
CC
CC
FC
FC
ENDCHAR
STARTCHAR atilde
ENCODING 227
SWIDTH 268 0
DWIDTH 7 0
BBX 7 18 0 0
BITMAP
7E
FC
00
00
3C
7C
66
66
06
1E
7E
76
66
66
66
66
7E
7E
ENDCHAR
STARTCHAR adieresis
ENCODING 228
SWIDTH 268 0
DWIDTH 7 0
BBX 6 18 1 0
BITMAP
D8
D8
00
00
78
F8
CC
CC
0C
3C
FC
EC
CC
CC
CC
CC
FC
FC
ENDCHAR
STARTCHAR aring
ENCODING 229
SWIDTH 268 0
DWIDTH 7 0
BBX 6 20 1 0
BITMAP
30
78
D8
78
70
00
78
F8
CC
CC
0C
3C
FC
EC
CC
CC
CC
CC
FC
FC
ENDCHAR
STARTCHAR ae
ENCODING 230
SWIDTH 402 0
DWIDTH 11 0
BBX 10 14 1 0
BITMAP
7F80
FF80
CC80
CCC0
0CC0
3CC0
FFC0
EFC0
CC00
CCC0
CCC0
CCC0
FF80
FF80
ENDCHAR
STARTCHAR ccedilla
ENCODING 231
SWIDTH 268 0
DWIDTH 7 0
BBX 7 19 0 -5
BITMAP
3C
7C
66
66
66
60
60
60
60
66
66
66
7C
7C
0E
06
E6
7C
38
ENDCHAR
STARTCHAR egrave
ENCODING 232
SWIDTH 268 0
DWIDTH 7 0
BBX 6 19 1 0
BITMAP
60
F0
1C
00
00
78
F8
CC
CC
CC
CC
FC
FC
C0
CC
CC
CC
F8
F8
ENDCHAR
STARTCHAR eacute
ENCODING 233
SWIDTH 268 0
DWIDTH 7 0
BBX 7 19 0 0
BITMAP
1C
3C
E0
00
00
3C
7C
66
66
66
66
7E
7E
60
66
66
66
7C
7C
ENDCHAR
STARTCHAR ecircumflex
ENCODING 234
SWIDTH 268 0
DWIDTH 7 0
BBX 6 18 1 0
BITMAP
70
D8
00
00
78
F8
CC
CC
CC
CC
FC
FC
C0
CC
CC
CC
F8
F8
ENDCHAR
STARTCHAR edieresis
ENCODING 235
SWIDTH 268 0
DWIDTH 7 0
BBX 6 18 1 0
BITMAP
D8
D8
00
00
78
F8
CC
CC
CC
CC
FC
FC
C0
CC
CC
CC
F8
F8
ENDCHAR
STARTCHAR igrave
ENCODING 236
SWIDTH 122 0
DWIDTH 3 0
BBX 6 19 -1 0
BITMAP
60
F0
1C
00
00
30
30
30
30
30
30
30
30
30
30
30
30
30
30
ENDCHAR
STARTCHAR iacute
ENCODING 237
SWIDTH 122 0
DWIDTH 3 0
BBX 6 19 -2 0
BITMAP
1C
3C
E0
00
00
18
18
18
18
18
18
18
18
18
18
18
18
18
18
ENDCHAR
STARTCHAR icircumflex
ENCODING 238
SWIDTH 117 0
DWIDTH 3 0
BBX 5 18 -1 0
BITMAP
70
D8
00
00
30
30
30
30
30
30
30
30
30
30
30
30
30
30
ENDCHAR
STARTCHAR idieresis
ENCODING 239
SWIDTH 117 0
DWIDTH 3 0
BBX 5 18 -1 0
BITMAP
D8
D8
00
00
30
30
30
30
30
30
30
30
30
30
30
30
30
30
ENDCHAR
STARTCHAR eth
ENCODING 240
SWIDTH 317 0
DWIDTH 9 0
BBX 7 18 1 0
BITMAP
10
18
18
0C
7E
FE
CC
CC
CC
CC
CC
CC
CC
CC
CC
CC
FC
EC
ENDCHAR
STARTCHAR ntilde
ENCODING 241
SWIDTH 268 0
DWIDTH 7 0
BBX 7 18 0 0
BITMAP
7E
FC
00
00
7C
7C
66
66
66
66
66
66
66
66
66
66
66
66
ENDCHAR
STARTCHAR ograve
ENCODING 242
SWIDTH 268 0
DWIDTH 7 0
BBX 6 19 1 0
BITMAP
60
F0
1C
00
00
78
F8
CC
CC
CC
CC
CC
CC
CC
CC
CC
CC
F8
F8
ENDCHAR
STARTCHAR oacute
ENCODING 243
SWIDTH 268 0
DWIDTH 7 0
BBX 7 19 0 0
BITMAP
1C
3C
E0
00
00
3C
7C
66
66
66
66
66
66
66
66
66
66
7C
7C
ENDCHAR
STARTCHAR ocircumflex
ENCODING 244
SWIDTH 268 0
DWIDTH 7 0
BBX 6 18 1 0
BITMAP
70
D8
00
00
78
F8
CC
CC
CC
CC
CC
CC
CC
CC
CC
CC
F8
F8
ENDCHAR
STARTCHAR otilde
ENCODING 245
SWIDTH 268 0
DWIDTH 7 0
BBX 7 18 0 0
BITMAP
7E
FC
00
00
3C
7C
66
66
66
66
66
66
66
66
66
66
7C
7C
ENDCHAR
STARTCHAR odieresis
ENCODING 246
SWIDTH 268 0
DWIDTH 7 0
BBX 6 18 1 0
BITMAP
D8
D8
00
00
78
F8
CC
CC
CC
CC
CC
CC
CC
CC
CC
CC
F8
F8
ENDCHAR
STARTCHAR divide
ENCODING 247
SWIDTH 268 0
DWIDTH 7 0
BBX 6 10 1 4
BITMAP
30
30
00
00
FC
FC
00
00
30
30
ENDCHAR
STARTCHAR oslash
ENCODING 248
SWIDTH 268 0
DWIDTH 7 0
BBX 6 14 1 0
BITMAP
7C
F8
DC
DC
FC
FC
FC
EC
EC
EC
EC
CC
F8
F8
ENDCHAR
STARTCHAR ugrave
ENCODING 249
SWIDTH 268 0
DWIDTH 7 0
BBX 6 19 1 0
BITMAP
60
F0
1C
00
00
CC
CC
CC
CC
CC
CC
CC
CC
CC
CC
CC
CC
FC
FC
ENDCHAR
STARTCHAR uacute
ENCODING 250
SWIDTH 268 0
DWIDTH 7 0
BBX 7 19 0 0
BITMAP
1C
3C
E0
00
00
66
66
66
66
66
66
66
66
66
66
66
66
7E
7E
ENDCHAR
STARTCHAR ucircumflex
ENCODING 251
SWIDTH 268 0
DWIDTH 7 0
BBX 6 18 1 0
BITMAP
70
D8
00
00
CC
CC
CC
CC
CC
CC
CC
CC
CC
CC
CC
CC
FC
FC
ENDCHAR
STARTCHAR udieresis
ENCODING 252
SWIDTH 268 0
DWIDTH 7 0
BBX 6 18 1 0
BITMAP
D8
D8
00
00
CC
CC
CC
CC
CC
CC
CC
CC
CC
CC
CC
CC
FC
FC
ENDCHAR
STARTCHAR yacute
ENCODING 253
SWIDTH 292 0
DWIDTH 8 0
BBX 7 23 0 -4
BITMAP
1C
3C
E0
00
00
66
66
66
66
66
36
3C
3C
3C
3C
3C
18
18
18
18
18
78
70
ENDCHAR
STARTCHAR thorn
ENCODING 254
SWIDTH 268 0
DWIDTH 7 0
BBX 6 22 1 -4
BITMAP
C0
C0
C0
C0
F8
F8
CC
CC
CC
CC
CC
CC
CC
CC
CC
CC
F8
F8
C0
C0
C0
C0
ENDCHAR
STARTCHAR ydieresis
ENCODING 255
SWIDTH 292 0
DWIDTH 8 0
BBX 6 22 1 -4
BITMAP
CC
CC
00
00
CC
CC
CC
CC
CC
6C
78
78
78
78
78
30
30
30
30
30
F0
E0
ENDCHAR
STARTCHAR dotlessi
ENCODING 305
SWIDTH 122 0
DWIDTH 3 0
BBX 2 14 1 0
BITMAP
C0
C0
C0
C0
C0
C0
C0
C0
C0
C0
C0
C0
C0
C0
ENDCHAR
STARTCHAR OE
ENCODING 338
SWIDTH 463 0
DWIDTH 13 0
BBX 11 18 1 0
BITMAP
7FE0
FFE0
CC00
CC00
CC00
CC00
CC00
CC00
CFC0
CFC0
CC00
CC00
CC00
CC00
CC00
CC00
FFE0
FFE0
ENDCHAR
STARTCHAR oe
ENCODING 339
SWIDTH 415 0
DWIDTH 11 0
BBX 10 14 1 0
BITMAP
7F80
FF80
CC80
CCC0
CCC0
CCC0
CFC0
CFC0
CC00
CCC0
CCC0
CCC0
FF80
FF80
ENDCHAR
STARTCHAR circumflex
ENCODING 710
SWIDTH 292 0
DWIDTH 8 0
BBX 6 2 1 20
BITMAP
78
CC
ENDCHAR
STARTCHAR caron
ENCODING 711
SWIDTH 292 0
DWIDTH 8 0
BBX 5 2 1 20
BITMAP
D8
78
ENDCHAR
STARTCHAR uni02C9
ENCODING 713
SWIDTH 500 0
DWIDTH 14 0
BBX 7 1 4 16
BITMAP
FE
ENDCHAR
STARTCHAR breve
ENCODING 728
SWIDTH 500 0
DWIDTH 14 0
BBX 7 4 4 14
BITMAP
02
82
FC
38
ENDCHAR
STARTCHAR dotaccent
ENCODING 729
SWIDTH 500 0
DWIDTH 14 0
BBX 3 3 6 15
BITMAP
40
E0
40
ENDCHAR
STARTCHAR ring
ENCODING 730
SWIDTH 219 0
DWIDTH 6 0
BBX 4 5 1 19
BITMAP
60
F0
F0
F0
60
ENDCHAR
STARTCHAR ogonek
ENCODING 731
SWIDTH 292 0
DWIDTH 8 0
BBX 6 7 1 -5
BITMAP
60
E0
C0
CC
FC
F8
30
ENDCHAR
STARTCHAR tilde
ENCODING 732
SWIDTH 317 0
DWIDTH 9 0
BBX 7 2 1 20
BITMAP
FE
FC
ENDCHAR
STARTCHAR hungarumlaut
ENCODING 733
SWIDTH 500 0
DWIDTH 14 0
BBX 7 5 4 14
BITMAP
22
66
4C
C8
90
ENDCHAR
STARTCHAR semicolon.dup4
ENCODING 894
SWIDTH 146 0
DWIDTH 4 0
BBX 2 11 1 -1
BITMAP
C0
C0
00
00
00
00
00
00
C0
C0
C0
ENDCHAR
STARTCHAR endash
ENCODING 8211
SWIDTH 268 0
DWIDTH 7 0
BBX 6 2 1 8
BITMAP
FC
FC
ENDCHAR
STARTCHAR emdash
ENCODING 8212
SWIDTH 341 0
DWIDTH 9 0
BBX 8 2 1 8
BITMAP
FF
FF
ENDCHAR
STARTCHAR quoteleft
ENCODING 8216
SWIDTH 146 0
DWIDTH 4 0
BBX 2 3 1 16
BITMAP
C0
C0
40
ENDCHAR
STARTCHAR quoteright
ENCODING 8217
SWIDTH 146 0
DWIDTH 4 0
BBX 2 3 1 16
BITMAP
C0
C0
80
ENDCHAR
STARTCHAR quotesinglbase
ENCODING 8218
SWIDTH 146 0
DWIDTH 4 0
BBX 2 3 1 -1
BITMAP
C0
C0
C0
ENDCHAR
STARTCHAR quotedblleft
ENCODING 8220
SWIDTH 249 0
DWIDTH 7 0
BBX 5 3 1 16
BITMAP
D8
D8
58
ENDCHAR
STARTCHAR quotedblright
ENCODING 8221
SWIDTH 249 0
DWIDTH 7 0
BBX 5 3 1 16
BITMAP
D8
D8
B0
ENDCHAR
STARTCHAR quotedblbase
ENCODING 8222
SWIDTH 244 0
DWIDTH 7 0
BBX 5 4 1 -2
BITMAP
D8
D8
D0
B0
ENDCHAR
STARTCHAR dagger
ENCODING 8224
SWIDTH 495 0
DWIDTH 13 0
BBX 11 23 2 -4
BITMAP
0E00
0E00
0E00
0400
C460
FFE0
E5E0
0400
0C00
0E00
0E00
0E00
0E00
0C00
0C00
0400
0400
0400
0400
0400
0400
0400
0400
ENDCHAR
STARTCHAR daggerdbl
ENCODING 8225
SWIDTH 495 0
DWIDTH 13 0
BBX 11 23 2 -4
BITMAP
0E00
0E00
0E00
0C00
C460
FFE0
E5E0
0400
0400
0C00
0E00
0E00
0C00
0400
0400
C460
FFE0
E5E0
0440
0C00
0E00
0E00
0400
ENDCHAR
STARTCHAR bullet
ENCODING 8226
SWIDTH 500 0
DWIDTH 14 0
BBX 8 7 3 6
BITMAP
3E
7F
7F
FF
7F
7F
3E
ENDCHAR
STARTCHAR ellipsis
ENCODING 8230
SWIDTH 366 0
DWIDTH 10 0
BBX 8 2 1 0
BITMAP
DB
DB
ENDCHAR
STARTCHAR perthousand
ENCODING 8240
SWIDTH 561 0
DWIDTH 15 0
BBX 14 18 1 0
BITMAP
78C0
F9C0
CD80
CF80
CF00
CF00
DE00
FE00
7C00
0D30
1FFC
1EFC
3CCC
3CCC
7CCC
6CCC
EFFC
C7F8
ENDCHAR
STARTCHAR guilsinglleft
ENCODING 8249
SWIDTH 292 0
DWIDTH 8 0
BBX 6 13 1 2
BITMAP
1C
18
30
70
60
C0
C0
60
70
30
18
18
0C
ENDCHAR
STARTCHAR guilsinglright
ENCODING 8250
SWIDTH 292 0
DWIDTH 8 0
BBX 6 13 1 2
BITMAP
E0
60
30
38
18
0C
0C
18
38
30
60
E0
C0
ENDCHAR
STARTCHAR fraction
ENCODING 8260
SWIDTH 268 0
DWIDTH 7 0
BBX 6 18 1 0
BITMAP
0C
18
18
18
18
30
30
30
30
30
60
60
60
60
C0
C0
C0
C0
ENDCHAR
STARTCHAR franc
ENCODING 8355
SWIDTH 341 0
DWIDTH 9 0
BBX 8 18 1 0
BITMAP
7F
7F
60
60
60
60
60
60
7C
7C
60
60
60
60
F0
F0
60
60
ENDCHAR
STARTCHAR lira
ENCODING 8356
SWIDTH 292 0
DWIDTH 8 0
BBX 6 18 1 0
BITMAP
3C
7C
60
60
60
60
60
60
F0
F0
60
60
60
60
60
60
FC
FC
ENDCHAR
STARTCHAR peseta
ENCODING 8359
SWIDTH 341 0
DWIDTH 9 0
BBX 8 18 1 0
BITMAP
7C
7E
66
63
63
63
63
63
66
7E
7C
60
60
60
F0
F0
60
60
ENDCHAR
STARTCHAR Euro
ENCODING 8364
SWIDTH 341 0
DWIDTH 9 0
BBX 8 18 1 0
BITMAP
3E
7E
62
63
63
60
FC
FC
60
60
FC
FC
60
63
63
63
7E
3E
ENDCHAR
STARTCHAR uni2116
ENCODING 8470
SWIDTH 329 0
DWIDTH 9 0
BBX 7 9 1 9
BITMAP
A6
AA
AA
EA
EA
EA
EA
AA
AE
ENDCHAR
STARTCHAR trademark
ENCODING 8482
SWIDTH 378 0
DWIDTH 10 0
BBX 9 9 1 9
BITMAP
E980
4980
4980
4D80
4E80
4E80
4E80
4E80
4E80
ENDCHAR
STARTCHAR partialdiff
ENCODING 8706
SWIDTH 805 0
DWIDTH 22 0
BBX 20 20 0 0
BITMAP
7FFFE0
800010
000010
000010
000010
000010
000010
000010
000010
000010
000010
000010
000010
000010
000010
000010
000010
000010
800010
400020
ENDCHAR
STARTCHAR Delta
ENCODING 8710
SWIDTH 805 0
DWIDTH 22 0
BBX 20 20 0 0
BITMAP
7FFFE0
800010
000010
000010
000010
000010
000010
000010
000010
000010
000010
000010
000010
000010
000010
000010
000010
000010
800010
400020
ENDCHAR
STARTCHAR product
ENCODING 8719
SWIDTH 805 0
DWIDTH 22 0
BBX 20 20 0 0
BITMAP
7FFFE0
800010
000010
000010
000010
000010
000010
000010
000010
000010
000010
000010
000010
000010
000010
000010
000010
000010
800010
400020
ENDCHAR
STARTCHAR summation
ENCODING 8721
SWIDTH 805 0
DWIDTH 22 0
BBX 20 20 0 0
BITMAP
7FFFE0
800010
000010
000010
000010
000010
000010
000010
000010
000010
000010
000010
000010
000010
000010
000010
000010
000010
800010
400020
ENDCHAR
STARTCHAR minus
ENCODING 8722
SWIDTH 268 0
DWIDTH 7 0
BBX 6 2 1 8
BITMAP
FC
FC
ENDCHAR
STARTCHAR fraction.dup5
ENCODING 8725
SWIDTH 268 0
DWIDTH 7 0
BBX 6 18 1 0
BITMAP
0C
18
18
18
18
30
30
30
30
30
60
60
60
60
C0
C0
C0
C0
ENDCHAR
STARTCHAR periodcentered.dup6
ENCODING 8729
SWIDTH 122 0
DWIDTH 3 0
BBX 2 2 1 8
BITMAP
C0
C0
ENDCHAR
STARTCHAR approxequal
ENCODING 8776
SWIDTH 805 0
DWIDTH 22 0
BBX 20 20 0 0
BITMAP
7FFFE0
800010
000010
000010
000010
000010
000010
000010
000010
000010
000010
000010
000010
000010
000010
000010
000010
000010
800010
400020
ENDCHAR
STARTCHAR lessequal
ENCODING 8804
SWIDTH 805 0
DWIDTH 22 0
BBX 20 20 0 0
BITMAP
7FFFE0
800010
000010
000010
000010
000010
000010
000010
000010
000010
000010
000010
000010
000010
000010
000010
000010
000010
800010
400020
ENDCHAR
STARTCHAR greaterequal
ENCODING 8805
SWIDTH 805 0
DWIDTH 22 0
BBX 20 20 0 0
BITMAP
7FFFE0
800010
000010
000010
000010
000010
000010
000010
000010
000010
000010
000010
000010
000010
000010
000010
000010
000010
800010
400020
ENDCHAR
STARTCHAR uniF001
ENCODING 61441
SWIDTH 523 0
DWIDTH 14 0
BBX 1 1 0 0
BITMAP
00
ENDCHAR
STARTCHAR uniF002
ENCODING 61442
SWIDTH 527 0
DWIDTH 14 0
BBX 1 1 0 0
BITMAP
00
ENDCHAR
STARTCHAR uniF001.dup7
ENCODING 64257
SWIDTH 523 0
DWIDTH 14 0
BBX 1 1 0 0
BITMAP
00
ENDCHAR
STARTCHAR uniF002.dup8
ENCODING 64258
SWIDTH 527 0
DWIDTH 14 0
BBX 1 1 0 0
BITMAP
00
ENDCHAR
STARTCHAR .notdef
ENCODING -1
SWIDTH 805 0
DWIDTH 22 0
BBX 20 20 0 0
BITMAP
7FFFE0
800010
000010
000010
000010
000010
000010
000010
000010
000010
000010
000010
000010
000010
000010
000010
000010
000010
800010
400020
ENDCHAR
STARTCHAR nonmarkingreturn
ENCODING -1
SWIDTH 248 0
DWIDTH 7 0
BBX 1 1 0 0
BITMAP
00
ENDCHAR
ENDFONT
